HIERARCHY
ROOT Hips
{
	OFFSET	0.00	0.00	0.00
	CHANNELS 6 Xposition Yposition Zposition Zrotation Xrotation Yrotation
	JOINT LeftUpLeg
	{
		OFFSET	 0.126116	-0.014019	-0.065224
		CHANNELS 3 Zrotation Xrotation Yrotation
		JOINT LeftLeg
		{
			OFFSET	 0.000000	 0.000000	 0.569914
			CHANNELS 3 Zrotation Xrotation Yrotation
			JOINT LeftFoot
			{
				OFFSET	 0.000000	 0.000000	 0.544423
				CHANNELS 3 Zrotation Xrotation Yrotation
				JOINT LeftToeBase
				{
					OFFSET	 0.000000	 0.000000	 0.207117
					CHANNELS 3 Zrotation Xrotation Yrotation
					End Site
					{
						OFFSET	 0.000000	 0.000000	 0.207117
					}
				}
			}
		}
	}
	JOINT RightUpLeg
	{
		OFFSET	-0.124023	-0.008373	-0.065224
		CHANNELS 3 Zrotation Xrotation Yrotation
		JOINT RightLeg
		{
			OFFSET	 0.000000	 0.000000	 0.570047
			CHANNELS 3 Zrotation Xrotation Yrotation
			JOINT RightFoot
			{
				OFFSET	 0.000000	 0.000000	 0.544354
				CHANNELS 3 Zrotation Xrotation Yrotation
				JOINT RightToeBase
				{
					OFFSET	 0.000000	 0.000000	 0.207540
					CHANNELS 3 Zrotation Xrotation Yrotation
					End Site
					{
						OFFSET	 0.000000	 0.000000	 0.207540
					}
				}
			}
		}
	}
	JOINT Spine
	{
		OFFSET	 0.000184	-0.007763	 0.117403
		CHANNELS 3 Zrotation Xrotation Yrotation
		JOINT Spine1
		{
			OFFSET	 0.000000	 0.000000	 0.137269
			CHANNELS 3 Zrotation Xrotation Yrotation
			JOINT Spine2
			{
				OFFSET	 0.000000	 0.000000	 0.156879
				CHANNELS 3 Zrotation Xrotation Yrotation
				JOINT LeftShoulder
				{
					OFFSET	 0.080501	-0.002496	 0.160144
					CHANNELS 3 Zrotation Xrotation Yrotation
					JOINT LeftArm
					{
						OFFSET	 0.000000	 0.000000	 0.164363
						CHANNELS 3 Zrotation Xrotation Yrotation
						JOINT LeftForeArm
						{
							OFFSET	 0.000000	 0.000000	 0.364576
							CHANNELS 3 Zrotation Xrotation Yrotation
							JOINT LeftHand
							{
								OFFSET	 0.000000	 0.000000	 0.360812
								CHANNELS 3 Zrotation Xrotation Yrotation
								JOINT LeftHandIndex1
								{
									OFFSET	 0.000000	 0.000000	 0.086006
									CHANNELS 3 Zrotation Xrotation Yrotation
									JOINT LeftHandIndex2
									{
										OFFSET	 0.000000	 0.000000	 0.047236
										CHANNELS 3 Zrotation Xrotation Yrotation
										JOINT LeftHandIndex3
										{
											OFFSET	-0.004284	-0.000551	 0.038166
											CHANNELS 3 Zrotation Xrotation Yrotation
											End Site
											{
												OFFSET	-0.004284	-0.000551	 0.038166
											}
										}
									}
								}
							}
						}
					}
				}
				JOINT Neck
				{
					OFFSET	 0.000000	 0.000000	 0.176489
					CHANNELS 3 Zrotation Xrotation Yrotation
					JOINT Head
					{
						OFFSET	 0.000000	-0.001747	 0.077940
						CHANNELS 3 Zrotation Xrotation Yrotation
						End Site
						{
							OFFSET	 0.000000	-0.001747	 0.077940
						}
					}
				}
				JOINT RightShoulder
				{
					OFFSET	-0.080363	 0.000306	 0.159706
					CHANNELS 3 Zrotation Xrotation Yrotation
					JOINT RightArm
					{
						OFFSET	 0.000000	 0.000000	 0.164196
						CHANNELS 3 Zrotation Xrotation Yrotation
						JOINT RightForeArm
						{
							OFFSET	 0.000000	 0.000000	 0.365611
							CHANNELS 3 Zrotation Xrotation Yrotation
							JOINT RightHand
							{
								OFFSET	 0.000000	 0.000000	 0.360648
								CHANNELS 3 Zrotation Xrotation Yrotation
								JOINT RightHandIndex1
								{
									OFFSET	 0.000000	 0.000000	 0.069977
									CHANNELS 3 Zrotation Xrotation Yrotation
									JOINT RightHandIndex2
									{
										OFFSET	 0.000000	 0.000000	 0.052305
										CHANNELS 3 Zrotation Xrotation Yrotation
										JOINT RightHandIndex3
										{
											OFFSET	 0.009002	-0.000782	 0.042196
											CHANNELS 3 Zrotation Xrotation Yrotation
											End Site
											{
												OFFSET	 0.009002	-0.000782	 0.042196
											}
										}
									}
								}
							}
						}
					}
				}
			}
		}
	}
}
MOTION
Frames:    4
Frame Time: 0.03333334
-0.000511	 0.016002	 1.264523	 0.004062	 0.007397	-0.097173	 2.596093	-4.219474	 178.004700	 1.398805	-16.833300	-0.997302	-8.597527	 73.483800	 2.561481	-2.385833	 28.452760	 0.000004	-2.716489	-4.532267	-177.828800	-1.378351	-17.298730	 1.007732	 8.425219	 73.747260	-2.532474	 2.384658	 28.388730	 0.000004	-11.491970	 2.723426	-0.016747	 1.164513	 3.668074	 0.474687	-3.498328	-4.624880	-0.774166	-91.776160	 78.527470	 180.000000	 52.167490	 37.126880	-52.796840	-22.562840	 2.812098	-10.095060	-38.709490	-17.844270	-7.158646	-2.635965	 4.993658	 6.788941	-5.165319	 0.784187	 3.516649	-5.225038	 0.466231	 0.424329	-0.000002	-3.783157	-0.089647	-3.390310	 4.940281	 0.146282	 89.782080	 78.203900	-180.000000	 0.773018	 12.675420	 108.110000	-20.015160	 2.476976	 10.188940	 9.992496	-19.929300	-3.638443	 6.112037	 4.509576	-0.364401	 4.968462	 1.518543	-9.347576	 5.168945	 0.703820	 2.021906
-0.000525	 0.014609	 1.265071	 0.004057	 0.007397	-0.097164	 2.603696	-4.006633	 177.989000	 1.406054	-16.428920	-0.971959	-8.460314	 73.296740	 2.417866	-2.385833	 28.452760	 0.000004	-2.727429	-4.245451	-177.809300	-1.386431	-16.853530	 0.980213	 8.306271	 73.592900	-2.407425	 2.384658	 28.388730	 0.000004	-11.079820	 2.723423	-0.016752	 1.164515	 3.668059	 0.474698	-3.498325	-4.624866	-0.774174	-91.776130	 78.527490	 180.000000	 52.226200	 37.119470	-52.865200	-22.751740	 2.882233	-10.218360	-38.823510	-17.324770	-7.119658	-2.635965	 4.993658	 6.788941	-5.165319	 0.784187	 3.516649	-5.225038	 0.466231	 0.424329	-0.000002	-3.783157	-0.089647	-3.390311	 4.940280	 0.146282	 89.782070	 78.203890	-180.000000	 0.721878	 12.919850	 108.155500	-19.995540	 2.544534	 10.310820	 10.223850	-19.550590	-3.694633	 6.112037	 4.509576	-0.364401	 4.968462	 1.518543	-9.347576	 5.168945	 0.703820	 2.021906
-0.000507	 0.013044	 1.265553	 0.004058	 0.007395	-0.097166	 2.610774	-3.809040	 177.974600	 1.412496	-16.060090	-0.948937	-8.339938	 73.129420	 2.291697	-2.385833	 28.452760	 0.000004	-2.738218	-3.963666	-177.790300	-1.393820	-16.434210	 0.954414	 8.203256	 73.458970	-2.298833	 2.384658	 28.388730	 0.000004	-10.461440	 2.723425	-0.016750	 1.164516	 3.668077	 0.474712	-3.498331	-4.624879	-0.774180	-91.776210	 78.527490	-180.000000	 52.366770	 37.135040	-53.052310	-22.944690	 2.952067	-10.340520	-38.950050	-16.599660	-7.049657	-2.635965	 4.993658	 6.788941	-5.165319	 0.784187	 3.516649	-5.225038	 0.466231	 0.424329	-0.000002	-3.783157	-0.089647	-3.390311	 4.940280	 0.146282	 89.782100	 78.203890	 180.000000	 0.614054	 13.321690	 108.165300	-19.995960	 2.614260	 10.435400	 9.959018	-18.714820	-3.778419	 6.112037	 4.509576	-0.364401	 4.968462	 1.518543	-9.347576	 5.168945	 0.703820	 2.021906
-0.000464	 0.011600	 1.265859	 0.004058	 0.007395	-0.097162	 2.615636	-3.673460	 177.964800	 1.416667	-15.816000	-0.933747	-8.264330	 73.023400	 2.212319	-2.385833	 28.452760	 0.000004	-2.746433	-3.749307	-177.776000	-1.398894	-16.139160	 0.936329	 8.141229	 73.380560	-2.233123	 2.384658	 28.388730	 0.000004	-9.723777	 2.723425	-0.016755	 1.164514	 3.668069	 0.474707	-3.498333	-4.624870	-0.774180	-91.776100	 78.527490	 179.999900	 52.558990	 37.197630	-53.333350	-23.088090	 3.005161	-10.431780	-39.056940	-15.787930	-6.955736	-2.635965	 4.993658	 6.788941	-5.165319	 0.784187	 3.516649	-5.225038	 0.466231	 0.424329	-0.000002	-3.783157	-0.089647	-3.390310	 4.940281	 0.146282	 89.782110	 78.203920	 180.000000	 0.148453	 14.266710	 108.150900	-19.615650	 2.670134	 10.528230	 9.029605	-17.664140	-3.823530	 6.112037	 4.509576	-0.364401	 4.968462	 1.518543	-9.347576	 5.168945	 0.703820	 2.021906
